<svg width="188" height="236" viewBox="0 0 188 236" fill="none" xmlns="http://www.w3.org/2000/svg">
<g opacity="0.2">
<path d="M96.3516 60.573V55.853H101.072V60.573H96.3516Z" fill="#212121"/>
<path d="M96.3516 149.073V144.353H101.072V149.073H96.3516Z" fill="#212121"/>
<path d="M96.3516 31.0735V26.3535H101.072V31.0735H96.3516Z" fill="#212121"/>
<path d="M96.3516 119.573V114.853H101.072V119.573H96.3516Z" fill="#212121"/>
<path d="M96.3516 90.073V85.353H101.072V90.073H96.3516Z" fill="#212121"/>
<path d="M96.3516 178.573V173.853H101.072V178.573H96.3516Z" fill="#212121"/>
<path d="M96.3516 208.073V203.353H101.072V208.073H96.3516Z" fill="#212121"/>
<path d="M7.85156 60.573V55.853H12.5716V60.573H7.85156Z" fill="#212121"/>
<path d="M7.85156 149.073V144.353H12.5716V149.073H7.85156Z" fill="#212121"/>
<path d="M7.85156 31.0735V26.3535H12.5716V31.0735H7.85156Z" fill="#212121"/>
<path d="M7.85156 119.573V114.853H12.5716V119.573H7.85156Z" fill="#212121"/>
<path d="M7.85156 90.073V85.353H12.5716V90.073H7.85156Z" fill="#212121"/>
<path d="M7.85156 178.573V173.853H12.5716V178.573H7.85156Z" fill="#212121"/>
<path d="M7.85156 208.073V203.353H12.5716V208.073H7.85156Z" fill="#212121"/>
<path d="M155.352 60.573V55.853H160.072V60.573H155.352Z" fill="#212121"/>
<path d="M155.352 149.073V144.353H160.072V149.073H155.352Z" fill="#212121"/>
<path d="M155.352 31.0735V26.3535H160.072V31.0735H155.352Z" fill="#212121"/>
<path d="M155.352 119.573V114.853H160.072V119.573H155.352Z" fill="#212121"/>
<path d="M155.352 90.073V85.353H160.072V90.073H155.352Z" fill="#212121"/>
<path d="M155.352 178.573V173.853H160.072V178.573H155.352Z" fill="#212121"/>
<path d="M155.352 208.073V203.353H160.072V208.073H155.352Z" fill="#212121"/>
<path d="M66.8516 60.573V55.853H71.5716V60.573H66.8516Z" fill="#212121"/>
<path d="M66.8516 149.073V144.353H71.5716V149.073H66.8516Z" fill="#212121"/>
<path d="M66.8516 31.0735V26.3535H71.5716V31.0735H66.8516Z" fill="#212121"/>
<path d="M66.8516 119.573V114.853H71.5716V119.573H66.8516Z" fill="#212121"/>
<path d="M66.8516 90.073V85.353H71.5716V90.073H66.8516Z" fill="#212121"/>
<path d="M66.8516 178.573V173.853H71.5716V178.573H66.8516Z" fill="#212121"/>
<path d="M66.8516 208.073V203.353H71.5716V208.073H66.8516Z" fill="#212121"/>
<path d="M125.852 60.573V55.853H130.572V60.573H125.852Z" fill="#212121"/>
<path d="M125.852 149.073V144.353H130.572V149.073H125.852Z" fill="#212121"/>
<path d="M125.852 31.0735V26.3535H130.572V31.0735H125.852Z" fill="#212121"/>
<path d="M125.852 119.573V114.853H130.572V119.573H125.852Z" fill="#212121"/>
<path d="M125.852 90.073V85.353H130.572V90.073H125.852Z" fill="#212121"/>
<path d="M125.852 178.573V173.853H130.572V178.573H125.852Z" fill="#212121"/>
<path d="M125.852 208.073V203.353H130.572V208.073H125.852Z" fill="#212121"/>
<path d="M37.3516 60.573V55.853H42.0716V60.573H37.3516Z" fill="#212121"/>
<path d="M37.3516 149.073V144.353H42.0716V149.073H37.3516Z" fill="#212121"/>
<path d="M37.3516 31.0735V26.3535H42.0716V31.0735H37.3516Z" fill="#212121"/>
<path d="M37.3516 119.573V114.853H42.0716V119.573H37.3516Z" fill="#212121"/>
<path d="M37.3516 90.073V85.353H42.0716V90.073H37.3516Z" fill="#212121"/>
<path d="M37.3516 178.573V173.853H42.0716V178.573H37.3516Z" fill="#212121"/>
<path d="M37.3516 208.073V203.353H42.0716V208.073H37.3516Z" fill="#212121"/>
<path d="M12.5716 236H7.85156V233.64H12.5716V236Z" fill="#212121"/>
<path d="M42.0716 236H37.3516V233.64H42.0716V236Z" fill="#212121"/>
<path d="M71.5716 236H66.8516V233.64H71.5716V236Z" fill="#212121"/>
<path d="M101.072 236H96.3516V233.64H101.072V236Z" fill="#212121"/>
<path d="M130.572 236H125.852V233.64H130.572V236Z" fill="#212121"/>
<path d="M160.072 236H155.352V233.64H160.072V236Z" fill="#212121"/>
<path d="M188 233.64V236H185.64V233.64H188Z" fill="#212121"/>
<path d="M188 203.353V208.073H185.64V203.353H188Z" fill="#212121"/>
<path d="M188 173.853V178.573H185.64V173.853H188Z" fill="#212121"/>
<path d="M188 144.353V149.073H185.64V144.353H188Z" fill="#212121"/>
<path d="M188 114.853V119.573H185.64V114.853H188Z" fill="#212121"/>
<path d="M188 85.353V90.073H185.64V85.353H188Z" fill="#212121"/>
<path d="M188 55.853V60.573H185.64V55.853H188Z" fill="#212121"/>
<path d="M188 26.3535V31.0735H185.64V26.3535H188Z" fill="#212121"/>
<path d="M185.64 0V2.36H188V0H185.64Z" fill="#212121"/>
<path d="M155.352 0V2.36H160.072V0H155.352Z" fill="#212121"/>
<path d="M125.852 0V2.36H130.572V0H125.852Z" fill="#212121"/>
<path d="M96.3516 0V2.36H101.072V0H96.3516Z" fill="#212121"/>
<path d="M66.8516 0V2.36H71.5716V0H66.8516Z" fill="#212121"/>
<path d="M37.3516 0V2.36H42.0716V0H37.3516Z" fill="#212121"/>
<path d="M7.85156 0V2.36H12.5716V0H7.85156Z" fill="#212121"/>
</g>
</svg>
