<svg width="283" height="315" viewBox="0 0 283 315" fill="none" xmlns="http://www.w3.org/2000/svg">
<path fill-rule="evenodd" clip-rule="evenodd" d="M397.5 53.3557C207.434 53.3557 53.3557 207.434 53.3557 397.5C53.3557 587.566 207.434 741.645 397.5 741.645C587.566 741.645 741.645 587.566 741.645 397.5C741.645 207.434 587.566 53.3557 397.5 53.3557ZM0 397.5C0 177.967 177.967 0 397.5 0C617.033 0 795 177.967 795 397.5C795 617.033 617.033 795 397.5 795C177.967 795 0 617.033 0 397.5Z" fill="#ED4C5C"/>
<path fill-rule="evenodd" clip-rule="evenodd" d="M397.499 141.392C256.055 141.392 141.392 256.055 141.392 397.499C141.392 538.944 256.055 653.607 397.499 653.607C538.944 653.607 653.607 538.944 653.607 397.499C653.607 256.055 538.944 141.392 397.499 141.392ZM88.0361 397.499C88.0361 226.588 226.588 88.0361 397.499 88.0361C568.411 88.0361 706.962 226.588 706.962 397.499C706.962 568.411 568.411 706.962 397.499 706.962C226.588 706.962 88.0361 568.411 88.0361 397.499Z" fill="#ED4C5C"/>
<path fill-rule="evenodd" clip-rule="evenodd" d="M397.5 240.101C310.571 240.101 240.101 310.571 240.101 397.501C240.101 484.43 310.571 554.9 397.5 554.9C484.429 554.9 554.9 484.43 554.9 397.501C554.9 310.571 484.429 240.101 397.5 240.101ZM186.745 397.501C186.745 281.104 281.103 186.746 397.5 186.746C513.897 186.746 608.255 281.104 608.255 397.501C608.255 513.897 513.897 608.256 397.5 608.256C281.103 608.256 186.745 513.897 186.745 397.501Z" fill="#ED4C5C"/>
</svg>
