<svg width="292" height="41" viewBox="0 0 292 41" fill="none" xmlns="http://www.w3.org/2000/svg">
<rect x="0.910156" width="134.59" height="40.5" rx="4.5" fill="#0A0A0A"/>
<g clip-path="url(#clip0_1_16625)">
<path d="M25.2948 19.5405L12.5244 32.9201C12.6678 33.4283 12.9255 33.897 13.2779 34.2904C13.6302 34.6838 14.0678 34.9914 14.5572 35.1897C15.0466 35.388 15.5749 35.4718 16.1016 35.4347C16.6284 35.3976 17.1397 35.2405 17.5965 34.9755L31.9656 26.7918L25.2948 19.5405Z" fill="#EA4335"/>
<path d="M38.208 17.2662L31.9943 13.707L25 19.8447L32.0228 26.7724L38.1891 23.2515C38.7354 22.9654 39.193 22.5353 39.5122 22.0078C39.8315 21.4802 40.0002 20.8754 40.0002 20.2588C40.0002 19.6421 39.8315 19.0373 39.5122 18.5097C39.193 17.9822 38.7354 17.5521 38.1891 17.266H38.2082L38.208 17.2662Z" fill="#FBBC04"/>
<path d="M12.5244 7.53125C12.4472 7.81662 12.4088 8.11108 12.4102 8.4067V32.0444C12.411 32.3399 12.4494 32.6341 12.5244 32.9199L25.7326 19.883L12.5244 7.53125Z" fill="#4285F4"/>
<path d="M25.39 20.2256L31.9942 13.7072L17.6441 5.48531C17.1042 5.16911 16.4901 5.00166 15.8644 5.00001C14.3117 4.99699 12.9467 6.02752 12.5244 7.5218L25.39 20.2256Z" fill="#34A853"/>
</g>
<path d="M57.67 11.795C57.49 11.381 57.214 11.057 56.842 10.823C56.476 10.583 56.044 10.463 55.546 10.463C55.078 10.463 54.658 10.571 54.286 10.787C53.914 11.003 53.62 11.312 53.404 11.714C53.188 12.11 53.08 12.572 53.08 13.1C53.08 13.628 53.188 14.093 53.404 14.495C53.62 14.897 53.914 15.206 54.286 15.422C54.658 15.638 55.078 15.746 55.546 15.746C55.984 15.746 56.377 15.653 56.725 15.467C57.079 15.275 57.361 15.005 57.571 14.657C57.787 14.303 57.91 13.892 57.94 13.424H55.294V12.911H58.606V13.37C58.576 13.922 58.426 14.423 58.156 14.873C57.886 15.317 57.523 15.668 57.067 15.926C56.617 16.184 56.11 16.313 55.546 16.313C54.964 16.313 54.436 16.178 53.962 15.908C53.488 15.632 53.113 15.251 52.837 14.765C52.567 14.273 52.432 13.718 52.432 13.1C52.432 12.482 52.567 11.93 52.837 11.444C53.113 10.952 53.488 10.571 53.962 10.301C54.436 10.025 54.964 9.887 55.546 9.887C56.218 9.887 56.806 10.055 57.31 10.391C57.814 10.727 58.18 11.195 58.408 11.795H57.67ZM64.206 13.541C64.206 13.757 64.2 13.922 64.188 14.036H60.111C60.129 14.408 60.219 14.726 60.381 14.99C60.543 15.254 60.756 15.455 61.02 15.593C61.284 15.725 61.572 15.791 61.884 15.791C62.292 15.791 62.634 15.692 62.91 15.494C63.192 15.296 63.378 15.029 63.468 14.693H64.134C64.014 15.173 63.756 15.566 63.36 15.872C62.97 16.172 62.478 16.322 61.884 16.322C61.422 16.322 61.008 16.22 60.642 16.016C60.276 15.806 59.988 15.512 59.778 15.134C59.574 14.75 59.472 14.303 59.472 13.793C59.472 13.283 59.574 12.836 59.778 12.452C59.982 12.068 60.267 11.774 60.633 11.57C60.999 11.366 61.416 11.264 61.884 11.264C62.352 11.264 62.76 11.366 63.108 11.57C63.462 11.774 63.732 12.05 63.918 12.398C64.11 12.74 64.206 13.121 64.206 13.541ZM63.567 13.523C63.573 13.157 63.498 12.845 63.342 12.587C63.192 12.329 62.985 12.134 62.721 12.002C62.457 11.87 62.169 11.804 61.857 11.804C61.389 11.804 60.99 11.954 60.66 12.254C60.33 12.554 60.147 12.977 60.111 13.523H63.567ZM66.1777 11.867V14.918C66.1777 15.218 66.2347 15.425 66.3487 15.539C66.4627 15.653 66.6637 15.71 66.9517 15.71H67.5277V16.25H66.8527C66.4087 16.25 66.0787 16.148 65.8627 15.944C65.6467 15.734 65.5387 15.392 65.5387 14.918V11.867H64.8547V11.336H65.5387V10.103H66.1777V11.336H67.5277V11.867H66.1777ZM71.3514 10.409C71.2254 10.409 71.1174 10.364 71.0274 10.274C70.9374 10.184 70.8924 10.073 70.8924 9.941C70.8924 9.809 70.9374 9.701 71.0274 9.617C71.1174 9.527 71.2254 9.482 71.3514 9.482C71.4774 9.482 71.5854 9.527 71.6754 9.617C71.7654 9.701 71.8104 9.809 71.8104 9.941C71.8104 10.073 71.7654 10.184 71.6754 10.274C71.5854 10.364 71.4774 10.409 71.3514 10.409ZM71.6664 11.336V16.25H71.0364V11.336H71.6664ZM73.912 11.867V14.918C73.912 15.218 73.969 15.425 74.083 15.539C74.197 15.653 74.398 15.71 74.686 15.71H75.262V16.25H74.587C74.143 16.25 73.813 16.148 73.597 15.944C73.381 15.734 73.273 15.392 73.273 14.918V11.867H72.589V11.336H73.273V10.103H73.912V11.336H75.262V11.867H73.912ZM80.9218 16.322C80.4598 16.322 80.0428 16.22 79.6708 16.016C79.3048 15.806 79.0138 15.512 78.7978 15.134C78.5878 14.75 78.4828 14.303 78.4828 13.793C78.4828 13.283 78.5908 12.839 78.8068 12.461C79.0228 12.077 79.3168 11.783 79.6888 11.579C80.0608 11.369 80.4778 11.264 80.9398 11.264C81.4018 11.264 81.8188 11.369 82.1908 11.579C82.5688 11.783 82.8628 12.077 83.0728 12.461C83.2888 12.839 83.3968 13.283 83.3968 13.793C83.3968 14.297 83.2888 14.741 83.0728 15.125C82.8568 15.509 82.5598 15.806 82.1818 16.016C81.8038 16.22 81.3838 16.322 80.9218 16.322ZM80.9218 15.773C81.2458 15.773 81.5458 15.701 81.8218 15.557C82.0978 15.407 82.3198 15.185 82.4878 14.891C82.6618 14.591 82.7488 14.225 82.7488 13.793C82.7488 13.361 82.6648 12.998 82.4968 12.704C82.3288 12.404 82.1068 12.182 81.8308 12.038C81.5548 11.888 81.2548 11.813 80.9308 11.813C80.6068 11.813 80.3068 11.888 80.0308 12.038C79.7548 12.182 79.5328 12.404 79.3648 12.704C79.2028 12.998 79.1218 13.361 79.1218 13.793C79.1218 14.225 79.2028 14.591 79.3648 14.891C79.5328 15.185 79.7518 15.407 80.0218 15.557C80.2978 15.701 80.5978 15.773 80.9218 15.773ZM86.8492 11.246C87.4372 11.246 87.9172 11.429 88.2892 11.795C88.6612 12.155 88.8472 12.68 88.8472 13.37V16.25H88.2262V13.442C88.2262 12.908 88.0912 12.5 87.8212 12.218C87.5572 11.936 87.1942 11.795 86.7322 11.795C86.2582 11.795 85.8802 11.945 85.5982 12.245C85.3162 12.545 85.1752 12.986 85.1752 13.568V16.25H84.5452V11.336H85.1752V12.173C85.3312 11.873 85.5562 11.645 85.8502 11.489C86.1442 11.327 86.4772 11.246 86.8492 11.246Z" fill="white"/>
<path d="M58.936 23.31C58.72 22.894 58.42 22.582 58.036 22.374C57.652 22.158 57.208 22.05 56.704 22.05C56.152 22.05 55.66 22.174 55.228 22.422C54.796 22.67 54.456 23.022 54.208 23.478C53.968 23.934 53.848 24.462 53.848 25.062C53.848 25.662 53.968 26.194 54.208 26.658C54.456 27.114 54.796 27.466 55.228 27.714C55.66 27.962 56.152 28.086 56.704 28.086C57.448 28.086 58.052 27.878 58.516 27.462C58.98 27.046 59.264 26.482 59.368 25.77H56.236V24.678H60.832V25.746C60.744 26.394 60.512 26.99 60.136 27.534C59.768 28.078 59.284 28.514 58.684 28.842C58.092 29.162 57.432 29.322 56.704 29.322C55.92 29.322 55.204 29.142 54.556 28.782C53.908 28.414 53.392 27.906 53.008 27.258C52.632 26.61 52.444 25.878 52.444 25.062C52.444 24.246 52.632 23.514 53.008 22.866C53.392 22.218 53.908 21.714 54.556 21.354C55.212 20.986 55.928 20.802 56.704 20.802C57.592 20.802 58.38 21.022 59.068 21.462C59.764 21.894 60.268 22.51 60.58 23.31H58.936ZM65.0493 29.358C64.4253 29.358 63.8613 29.218 63.3573 28.938C62.8533 28.65 62.4573 28.25 62.1693 27.738C61.8813 27.218 61.7373 26.618 61.7373 25.938C61.7373 25.266 61.8853 24.67 62.1813 24.15C62.4773 23.63 62.8813 23.23 63.3933 22.95C63.9053 22.67 64.4773 22.53 65.1093 22.53C65.7413 22.53 66.3133 22.67 66.8253 22.95C67.3373 23.23 67.7413 23.63 68.0373 24.15C68.3333 24.67 68.4813 25.266 68.4813 25.938C68.4813 26.61 68.3293 27.206 68.0253 27.726C67.7213 28.246 67.3053 28.65 66.7773 28.938C66.2573 29.218 65.6813 29.358 65.0493 29.358ZM65.0493 28.17C65.4013 28.17 65.7293 28.086 66.0333 27.918C66.3453 27.75 66.5973 27.498 66.7893 27.162C66.9813 26.826 67.0773 26.418 67.0773 25.938C67.0773 25.458 66.9853 25.054 66.8013 24.726C66.6173 24.39 66.3733 24.138 66.0693 23.97C65.7653 23.802 65.4373 23.718 65.0853 23.718C64.7333 23.718 64.4053 23.802 64.1013 23.97C63.8053 24.138 63.5693 24.39 63.3933 24.726C63.2173 25.054 63.1293 25.458 63.1293 25.938C63.1293 26.65 63.3093 27.202 63.6693 27.594C64.0373 27.978 64.4973 28.17 65.0493 28.17ZM72.7016 29.358C72.0776 29.358 71.5136 29.218 71.0096 28.938C70.5056 28.65 70.1096 28.25 69.8216 27.738C69.5336 27.218 69.3896 26.618 69.3896 25.938C69.3896 25.266 69.5376 24.67 69.8336 24.15C70.1296 23.63 70.5336 23.23 71.0456 22.95C71.5576 22.67 72.1296 22.53 72.7616 22.53C73.3936 22.53 73.9656 22.67 74.4776 22.95C74.9896 23.23 75.3936 23.63 75.6896 24.15C75.9856 24.67 76.1336 25.266 76.1336 25.938C76.1336 26.61 75.9816 27.206 75.6776 27.726C75.3736 28.246 74.9576 28.65 74.4296 28.938C73.9096 29.218 73.3336 29.358 72.7016 29.358ZM72.7016 28.17C73.0536 28.17 73.3816 28.086 73.6856 27.918C73.9976 27.75 74.2496 27.498 74.4416 27.162C74.6336 26.826 74.7296 26.418 74.7296 25.938C74.7296 25.458 74.6376 25.054 74.4536 24.726C74.2696 24.39 74.0256 24.138 73.7216 23.97C73.4176 23.802 73.0896 23.718 72.7376 23.718C72.3856 23.718 72.0576 23.802 71.7536 23.97C71.4576 24.138 71.2216 24.39 71.0456 24.726C70.8696 25.054 70.7816 25.458 70.7816 25.938C70.7816 26.65 70.9616 27.202 71.3216 27.594C71.6896 27.978 72.1496 28.17 72.7016 28.17ZM80.1499 22.53C80.6619 22.53 81.1139 22.634 81.5059 22.842C81.9059 23.042 82.2179 23.294 82.4419 23.598V22.638H83.8219V29.358C83.8219 29.966 83.6939 30.506 83.4379 30.978C83.1819 31.458 82.8099 31.834 82.3219 32.106C81.8419 32.378 81.2659 32.514 80.5939 32.514C79.6979 32.514 78.9539 32.302 78.3619 31.878C77.7699 31.462 77.4339 30.894 77.3539 30.174H78.7099C78.8139 30.518 79.0339 30.794 79.3699 31.002C79.7139 31.218 80.1219 31.326 80.5939 31.326C81.1459 31.326 81.5899 31.158 81.9259 30.822C82.2699 30.486 82.4419 29.998 82.4419 29.358V28.254C82.2099 28.566 81.8939 28.83 81.4939 29.046C81.1019 29.254 80.6539 29.358 80.1499 29.358C79.5739 29.358 79.0459 29.214 78.5659 28.926C78.0939 28.63 77.7179 28.222 77.4379 27.702C77.1659 27.174 77.0299 26.578 77.0299 25.914C77.0299 25.25 77.1659 24.662 77.4379 24.15C77.7179 23.638 78.0939 23.242 78.5659 22.962C79.0459 22.674 79.5739 22.53 80.1499 22.53ZM82.4419 25.938C82.4419 25.482 82.3459 25.086 82.1539 24.75C81.9699 24.414 81.7259 24.158 81.4219 23.982C81.1179 23.806 80.7899 23.718 80.4379 23.718C80.0859 23.718 79.7579 23.806 79.4539 23.982C79.1499 24.15 78.9019 24.402 78.7099 24.738C78.5259 25.066 78.4339 25.458 78.4339 25.914C78.4339 26.37 78.5259 26.77 78.7099 27.114C78.9019 27.458 79.1499 27.722 79.4539 27.906C79.7659 28.082 80.0939 28.17 80.4379 28.17C80.7899 28.17 81.1179 28.082 81.4219 27.906C81.7259 27.73 81.9699 27.474 82.1539 27.138C82.3459 26.794 82.4419 26.394 82.4419 25.938ZM86.9868 20.37V29.25H85.6188V20.37H86.9868ZM94.8428 25.782C94.8428 26.03 94.8268 26.254 94.7948 26.454H89.7428C89.7828 26.982 89.9788 27.406 90.3308 27.726C90.6828 28.046 91.1148 28.206 91.6268 28.206C92.3628 28.206 92.8828 27.898 93.1868 27.282H94.6628C94.4628 27.89 94.0988 28.39 93.5708 28.782C93.0508 29.166 92.4028 29.358 91.6268 29.358C90.9948 29.358 90.4268 29.218 89.9228 28.938C89.4268 28.65 89.0348 28.25 88.7468 27.738C88.4668 27.218 88.3268 26.618 88.3268 25.938C88.3268 25.258 88.4628 24.662 88.7348 24.15C89.0148 23.63 89.4028 23.23 89.8988 22.95C90.4028 22.67 90.9788 22.53 91.6268 22.53C92.2508 22.53 92.8068 22.666 93.2948 22.938C93.7828 23.21 94.1628 23.594 94.4348 24.09C94.7068 24.578 94.8428 25.142 94.8428 25.782ZM93.4148 25.35C93.4068 24.846 93.2268 24.442 92.8748 24.138C92.5228 23.834 92.0868 23.682 91.5668 23.682C91.0948 23.682 90.6908 23.834 90.3548 24.138C90.0188 24.434 89.8188 24.838 89.7548 25.35H93.4148ZM105.138 23.394C105.138 23.818 105.038 24.218 104.838 24.594C104.638 24.97 104.318 25.278 103.878 25.518C103.438 25.75 102.874 25.866 102.186 25.866H100.674V29.25H99.3063V20.91H102.186C102.826 20.91 103.366 21.022 103.806 21.246C104.254 21.462 104.586 21.758 104.802 22.134C105.026 22.51 105.138 22.93 105.138 23.394ZM102.186 24.75C102.706 24.75 103.094 24.634 103.35 24.402C103.606 24.162 103.734 23.826 103.734 23.394C103.734 22.482 103.218 22.026 102.186 22.026H100.674V24.75H102.186ZM107.811 20.37V29.25H106.443V20.37H107.811ZM109.151 25.914C109.151 25.25 109.287 24.662 109.559 24.15C109.839 23.638 110.215 23.242 110.687 22.962C111.167 22.674 111.695 22.53 112.271 22.53C112.791 22.53 113.243 22.634 113.627 22.842C114.019 23.042 114.331 23.294 114.563 23.598V22.638H115.943V29.25H114.563V28.266C114.331 28.578 114.015 28.838 113.615 29.046C113.215 29.254 112.759 29.358 112.247 29.358C111.679 29.358 111.159 29.214 110.687 28.926C110.215 28.63 109.839 28.222 109.559 27.702C109.287 27.174 109.151 26.578 109.151 25.914ZM114.563 25.938C114.563 25.482 114.467 25.086 114.275 24.75C114.091 24.414 113.847 24.158 113.543 23.982C113.239 23.806 112.911 23.718 112.559 23.718C112.207 23.718 111.879 23.806 111.575 23.982C111.271 24.15 111.023 24.402 110.831 24.738C110.647 25.066 110.555 25.458 110.555 25.914C110.555 26.37 110.647 26.77 110.831 27.114C111.023 27.458 111.271 27.722 111.575 27.906C111.887 28.082 112.215 28.17 112.559 28.17C112.911 28.17 113.239 28.082 113.543 27.906C113.847 27.73 114.091 27.474 114.275 27.138C114.467 26.794 114.563 26.394 114.563 25.938ZM123.692 22.638L119.636 32.358H118.22L119.564 29.142L116.96 22.638H118.484L120.344 27.678L122.276 22.638H123.692Z" fill="white"/>
<rect x="159.5" width="132.5" height="40.5" rx="4.5" fill="#0A0A0A"/>
<g clip-path="url(#clip1_1_16625)">
<path d="M177.679 5H194.82C198.51 5 201.5 7.99043 201.5 11.6795V28.8205C201.5 32.5095 198.51 35.5 194.82 35.5H177.679C173.99 35.5 171 32.5095 171 28.8205V11.6795C171 7.99043 173.99 5 177.679 5Z" fill="url(#paint0_linear_1_16625)"/>
<path d="M180.775 27.1375L180.778 27.1384L179.735 28.9446C179.354 29.6039 178.511 29.8298 177.852 29.4492C177.193 29.0685 176.967 28.2255 177.347 27.5662L178.116 26.2356L178.189 26.1079C178.321 25.9187 178.646 25.592 179.296 25.6535C179.296 25.6535 180.825 25.8194 180.936 26.6143C180.936 26.6143 180.951 26.8759 180.775 27.1375ZM195.565 22.5244H192.313C192.092 22.5095 191.995 22.4304 191.957 22.3844L191.955 22.3802L188.474 16.351L188.469 16.354L188.261 16.0547C187.919 15.5314 187.375 16.8696 187.375 16.8696C186.727 18.3608 187.467 20.056 187.725 20.5684L192.56 28.9428C192.941 29.602 193.784 29.828 194.443 29.4473C195.103 29.0666 195.329 28.2236 194.948 27.5643L193.739 25.4702C193.716 25.4195 193.675 25.2818 193.923 25.2812H195.565C196.327 25.2812 196.944 24.664 196.944 23.9027C196.944 23.1414 196.327 22.5244 195.565 22.5244ZM189.249 24.3982C189.249 24.3982 189.423 25.2812 188.751 25.2812H176.73C175.969 25.2812 175.352 24.664 175.352 23.9027C175.352 23.1414 175.969 22.5243 176.73 22.5243H179.821C180.319 22.4954 180.438 22.2073 180.438 22.2073L180.441 22.2088L184.475 15.2214L184.473 15.2212C184.547 15.0862 184.486 14.9586 184.475 14.9385L183.143 12.6308C182.762 11.9716 182.988 11.1285 183.647 10.7479C184.307 10.3673 185.15 10.593 185.53 11.2524L186.148 12.3226L186.765 11.2543C187.146 10.5951 187.989 10.3691 188.648 10.7498C189.307 11.1305 189.533 11.9734 189.153 12.6327L183.539 22.3558C183.514 22.415 183.507 22.5079 183.689 22.5243H187.045L187.046 22.557C187.046 22.557 188.985 22.5872 189.249 24.3982Z" fill="white"/>
</g>
<path d="M216.083 9.959C216.779 9.959 217.376 10.085 217.874 10.337C218.372 10.589 218.753 10.952 219.017 11.426C219.281 11.9 219.413 12.464 219.413 13.118C219.413 13.766 219.281 14.327 219.017 14.801C218.753 15.269 218.372 15.629 217.874 15.881C217.376 16.127 216.779 16.25 216.083 16.25H214.22V9.959H216.083ZM216.083 15.728C216.959 15.728 217.625 15.5 218.081 15.044C218.543 14.582 218.774 13.94 218.774 13.118C218.774 12.29 218.543 11.645 218.081 11.183C217.625 10.715 216.959 10.481 216.083 10.481H214.85V15.728H216.083ZM222.725 16.322C222.263 16.322 221.846 16.22 221.474 16.016C221.108 15.806 220.817 15.512 220.601 15.134C220.391 14.75 220.286 14.303 220.286 13.793C220.286 13.283 220.394 12.839 220.61 12.461C220.826 12.077 221.12 11.783 221.492 11.579C221.864 11.369 222.281 11.264 222.743 11.264C223.205 11.264 223.622 11.369 223.994 11.579C224.372 11.783 224.666 12.077 224.876 12.461C225.092 12.839 225.2 13.283 225.2 13.793C225.2 14.297 225.092 14.741 224.876 15.125C224.66 15.509 224.363 15.806 223.985 16.016C223.607 16.22 223.187 16.322 222.725 16.322ZM222.725 15.773C223.049 15.773 223.349 15.701 223.625 15.557C223.901 15.407 224.123 15.185 224.291 14.891C224.465 14.591 224.552 14.225 224.552 13.793C224.552 13.361 224.468 12.998 224.3 12.704C224.132 12.404 223.91 12.182 223.634 12.038C223.358 11.888 223.058 11.813 222.734 11.813C222.41 11.813 222.11 11.888 221.834 12.038C221.558 12.182 221.336 12.404 221.168 12.704C221.006 12.998 220.925 13.361 220.925 13.793C220.925 14.225 221.006 14.591 221.168 14.891C221.336 15.185 221.555 15.407 221.825 15.557C222.101 15.701 222.401 15.773 222.725 15.773ZM232.829 11.336L231.29 16.25H230.66L229.301 12.128L227.942 16.25H227.303L225.764 11.336H226.403L227.627 15.611L229.004 11.336H229.634L230.993 15.62L232.208 11.336H232.829ZM235.992 11.246C236.58 11.246 237.06 11.429 237.432 11.795C237.804 12.155 237.99 12.68 237.99 13.37V16.25H237.369V13.442C237.369 12.908 237.234 12.5 236.964 12.218C236.7 11.936 236.337 11.795 235.875 11.795C235.401 11.795 235.023 11.945 234.741 12.245C234.459 12.545 234.318 12.986 234.318 13.568V16.25H233.688V11.336H234.318V12.173C234.474 11.873 234.699 11.645 234.993 11.489C235.287 11.327 235.62 11.246 235.992 11.246ZM240.013 9.59V16.25H239.383V9.59H240.013ZM243.591 16.322C243.129 16.322 242.712 16.22 242.34 16.016C241.974 15.806 241.683 15.512 241.467 15.134C241.257 14.75 241.152 14.303 241.152 13.793C241.152 13.283 241.26 12.839 241.476 12.461C241.692 12.077 241.986 11.783 242.358 11.579C242.73 11.369 243.147 11.264 243.609 11.264C244.071 11.264 244.488 11.369 244.86 11.579C245.238 11.783 245.532 12.077 245.742 12.461C245.958 12.839 246.066 13.283 246.066 13.793C246.066 14.297 245.958 14.741 245.742 15.125C245.526 15.509 245.229 15.806 244.851 16.016C244.473 16.22 244.053 16.322 243.591 16.322ZM243.591 15.773C243.915 15.773 244.215 15.701 244.491 15.557C244.767 15.407 244.989 15.185 245.157 14.891C245.331 14.591 245.418 14.225 245.418 13.793C245.418 13.361 245.334 12.998 245.166 12.704C244.998 12.404 244.776 12.182 244.5 12.038C244.224 11.888 243.924 11.813 243.6 11.813C243.276 11.813 242.976 11.888 242.7 12.038C242.424 12.182 242.202 12.404 242.034 12.704C241.872 12.998 241.791 13.361 241.791 13.793C241.791 14.225 241.872 14.591 242.034 14.891C242.202 15.185 242.421 15.407 242.691 15.557C242.967 15.701 243.267 15.773 243.591 15.773ZM246.926 13.784C246.926 13.28 247.025 12.839 247.223 12.461C247.427 12.077 247.706 11.783 248.06 11.579C248.42 11.369 248.825 11.264 249.275 11.264C249.743 11.264 250.145 11.372 250.481 11.588C250.823 11.804 251.069 12.08 251.219 12.416V11.336H251.849V16.25H251.219V15.161C251.063 15.497 250.814 15.776 250.472 15.998C250.136 16.214 249.734 16.322 249.266 16.322C248.822 16.322 248.42 16.217 248.06 16.007C247.706 15.797 247.427 15.5 247.223 15.116C247.025 14.732 246.926 14.288 246.926 13.784ZM251.219 13.793C251.219 13.397 251.138 13.049 250.976 12.749C250.814 12.449 250.592 12.218 250.31 12.056C250.034 11.894 249.728 11.813 249.392 11.813C249.044 11.813 248.732 11.891 248.456 12.047C248.18 12.203 247.961 12.431 247.799 12.731C247.643 13.025 247.565 13.376 247.565 13.784C247.565 14.186 247.643 14.54 247.799 14.846C247.961 15.146 248.18 15.377 248.456 15.539C248.732 15.695 249.044 15.773 249.392 15.773C249.728 15.773 250.034 15.692 250.31 15.53C250.592 15.368 250.814 15.137 250.976 14.837C251.138 14.537 251.219 14.189 251.219 13.793ZM252.999 13.784C252.999 13.28 253.101 12.839 253.305 12.461C253.509 12.077 253.788 11.783 254.142 11.579C254.502 11.369 254.907 11.264 255.357 11.264C255.789 11.264 256.179 11.369 256.527 11.579C256.875 11.789 257.13 12.062 257.292 12.398V9.59H257.922V16.25H257.292V15.152C257.142 15.494 256.896 15.776 256.554 15.998C256.212 16.214 255.81 16.322 255.348 16.322C254.898 16.322 254.493 16.217 254.133 16.007C253.779 15.797 253.5 15.5 253.296 15.116C253.098 14.732 252.999 14.288 252.999 13.784ZM257.292 13.793C257.292 13.397 257.211 13.049 257.049 12.749C256.887 12.449 256.665 12.218 256.383 12.056C256.107 11.894 255.801 11.813 255.465 11.813C255.117 11.813 254.805 11.891 254.529 12.047C254.253 12.203 254.034 12.431 253.872 12.731C253.716 13.025 253.638 13.376 253.638 13.784C253.638 14.186 253.716 14.54 253.872 14.846C254.034 15.146 254.253 15.377 254.529 15.539C254.805 15.695 255.117 15.773 255.465 15.773C255.801 15.773 256.107 15.692 256.383 15.53C256.665 15.368 256.887 15.137 257.049 14.837C257.211 14.537 257.292 14.189 257.292 13.793ZM262.145 10.409C262.019 10.409 261.911 10.364 261.821 10.274C261.731 10.184 261.686 10.073 261.686 9.941C261.686 9.809 261.731 9.701 261.821 9.617C261.911 9.527 262.019 9.482 262.145 9.482C262.271 9.482 262.379 9.527 262.469 9.617C262.559 9.701 262.604 9.809 262.604 9.941C262.604 10.073 262.559 10.184 262.469 10.274C262.379 10.364 262.271 10.409 262.145 10.409ZM262.46 11.336V16.25H261.83V11.336H262.46ZM264.706 11.867V14.918C264.706 15.218 264.763 15.425 264.877 15.539C264.991 15.653 265.192 15.71 265.48 15.71H266.056V16.25H265.381C264.937 16.25 264.607 16.148 264.391 15.944C264.175 15.734 264.067 15.392 264.067 14.918V11.867H263.383V11.336H264.067V10.103H264.706V11.336H266.056V11.867H264.706ZM271.716 16.322C271.254 16.322 270.837 16.22 270.465 16.016C270.099 15.806 269.808 15.512 269.592 15.134C269.382 14.75 269.277 14.303 269.277 13.793C269.277 13.283 269.385 12.839 269.601 12.461C269.817 12.077 270.111 11.783 270.483 11.579C270.855 11.369 271.272 11.264 271.734 11.264C272.196 11.264 272.613 11.369 272.985 11.579C273.363 11.783 273.657 12.077 273.867 12.461C274.083 12.839 274.191 13.283 274.191 13.793C274.191 14.297 274.083 14.741 273.867 15.125C273.651 15.509 273.354 15.806 272.976 16.016C272.598 16.22 272.178 16.322 271.716 16.322ZM271.716 15.773C272.04 15.773 272.34 15.701 272.616 15.557C272.892 15.407 273.114 15.185 273.282 14.891C273.456 14.591 273.543 14.225 273.543 13.793C273.543 13.361 273.459 12.998 273.291 12.704C273.123 12.404 272.901 12.182 272.625 12.038C272.349 11.888 272.049 11.813 271.725 11.813C271.401 11.813 271.101 11.888 270.825 12.038C270.549 12.182 270.327 12.404 270.159 12.704C269.997 12.998 269.916 13.361 269.916 13.793C269.916 14.225 269.997 14.591 270.159 14.891C270.327 15.185 270.546 15.407 270.816 15.557C271.092 15.701 271.392 15.773 271.716 15.773ZM277.643 11.246C278.231 11.246 278.711 11.429 279.083 11.795C279.455 12.155 279.641 12.68 279.641 13.37V16.25H279.02V13.442C279.02 12.908 278.885 12.5 278.615 12.218C278.351 11.936 277.988 11.795 277.526 11.795C277.052 11.795 276.674 11.945 276.392 12.245C276.11 12.545 275.969 12.986 275.969 13.568V16.25H275.339V11.336H275.969V12.173C276.125 11.873 276.35 11.645 276.644 11.489C276.938 11.327 277.271 11.246 277.643 11.246Z" fill="white"/>
<path d="M219.428 27.546H215.936L215.336 29.25H213.908L216.896 20.898H218.48L221.468 29.25H220.028L219.428 27.546ZM219.044 26.43L217.688 22.554L216.32 26.43H219.044ZM224.135 23.61C224.367 23.306 224.683 23.05 225.083 22.842C225.483 22.634 225.935 22.53 226.439 22.53C227.015 22.53 227.539 22.674 228.011 22.962C228.491 23.242 228.867 23.638 229.139 24.15C229.411 24.662 229.547 25.25 229.547 25.914C229.547 26.578 229.411 27.174 229.139 27.702C228.867 28.222 228.491 28.63 228.011 28.926C227.539 29.214 227.015 29.358 226.439 29.358C225.935 29.358 225.487 29.258 225.095 29.058C224.703 28.85 224.383 28.594 224.135 28.29V32.394H222.767V22.638H224.135V23.61ZM228.155 25.914C228.155 25.458 228.059 25.066 227.867 24.738C227.683 24.402 227.435 24.15 227.123 23.982C226.819 23.806 226.491 23.718 226.139 23.718C225.795 23.718 225.467 23.806 225.155 23.982C224.851 24.158 224.603 24.414 224.411 24.75C224.227 25.086 224.135 25.482 224.135 25.938C224.135 26.394 224.227 26.794 224.411 27.138C224.603 27.474 224.851 27.73 225.155 27.906C225.467 28.082 225.795 28.17 226.139 28.17C226.491 28.17 226.819 28.082 227.123 27.906C227.435 27.722 227.683 27.458 227.867 27.114C228.059 26.77 228.155 26.37 228.155 25.914ZM232.268 23.61C232.5 23.306 232.816 23.05 233.216 22.842C233.616 22.634 234.068 22.53 234.572 22.53C235.148 22.53 235.672 22.674 236.144 22.962C236.624 23.242 237 23.638 237.272 24.15C237.544 24.662 237.68 25.25 237.68 25.914C237.68 26.578 237.544 27.174 237.272 27.702C237 28.222 236.624 28.63 236.144 28.926C235.672 29.214 235.148 29.358 234.572 29.358C234.068 29.358 233.62 29.258 233.228 29.058C232.836 28.85 232.516 28.594 232.268 28.29V32.394H230.9V22.638H232.268V23.61ZM236.288 25.914C236.288 25.458 236.192 25.066 236 24.738C235.816 24.402 235.568 24.15 235.256 23.982C234.952 23.806 234.624 23.718 234.272 23.718C233.928 23.718 233.6 23.806 233.288 23.982C232.984 24.158 232.736 24.414 232.544 24.75C232.36 25.086 232.268 25.482 232.268 25.938C232.268 26.394 232.36 26.794 232.544 27.138C232.736 27.474 232.984 27.73 233.288 27.906C233.6 28.082 233.928 28.17 234.272 28.17C234.624 28.17 234.952 28.082 235.256 27.906C235.568 27.722 235.816 27.458 236 27.114C236.192 26.77 236.288 26.37 236.288 25.914ZM244.898 29.334C244.338 29.334 243.834 29.238 243.386 29.046C242.938 28.846 242.586 28.566 242.33 28.206C242.074 27.846 241.946 27.426 241.946 26.946H243.41C243.442 27.306 243.582 27.602 243.83 27.834C244.086 28.066 244.442 28.182 244.898 28.182C245.37 28.182 245.738 28.07 246.002 27.846C246.266 27.614 246.398 27.318 246.398 26.958C246.398 26.678 246.314 26.45 246.146 26.274C245.986 26.098 245.782 25.962 245.534 25.866C245.294 25.77 244.958 25.666 244.526 25.554C243.982 25.41 243.538 25.266 243.194 25.122C242.858 24.97 242.57 24.738 242.33 24.426C242.09 24.114 241.97 23.698 241.97 23.178C241.97 22.698 242.09 22.278 242.33 21.918C242.57 21.558 242.906 21.282 243.338 21.09C243.77 20.898 244.27 20.802 244.838 20.802C245.646 20.802 246.306 21.006 246.818 21.414C247.338 21.814 247.626 22.366 247.682 23.07H246.17C246.146 22.766 246.002 22.506 245.738 22.29C245.474 22.074 245.126 21.966 244.694 21.966C244.302 21.966 243.982 22.066 243.734 22.266C243.486 22.466 243.362 22.754 243.362 23.13C243.362 23.386 243.438 23.598 243.59 23.766C243.75 23.926 243.95 24.054 244.19 24.15C244.43 24.246 244.758 24.35 245.174 24.462C245.726 24.614 246.174 24.766 246.518 24.918C246.87 25.07 247.166 25.306 247.406 25.626C247.654 25.938 247.778 26.358 247.778 26.886C247.778 27.31 247.662 27.71 247.43 28.086C247.206 28.462 246.874 28.766 246.434 28.998C246.002 29.222 245.49 29.334 244.898 29.334ZM250.988 23.754V27.414C250.988 27.662 251.044 27.842 251.156 27.954C251.276 28.058 251.476 28.11 251.756 28.11H252.596V29.25H251.516C250.9 29.25 250.428 29.106 250.1 28.818C249.772 28.53 249.608 28.062 249.608 27.414V23.754H248.828V22.638H249.608V20.994H250.988V22.638H252.596V23.754H250.988ZM256.725 29.358C256.101 29.358 255.537 29.218 255.033 28.938C254.529 28.65 254.133 28.25 253.845 27.738C253.557 27.218 253.413 26.618 253.413 25.938C253.413 25.266 253.561 24.67 253.857 24.15C254.153 23.63 254.557 23.23 255.069 22.95C255.581 22.67 256.153 22.53 256.785 22.53C257.417 22.53 257.989 22.67 258.501 22.95C259.013 23.23 259.417 23.63 259.713 24.15C260.009 24.67 260.157 25.266 260.157 25.938C260.157 26.61 260.005 27.206 259.701 27.726C259.397 28.246 258.981 28.65 258.453 28.938C257.933 29.218 257.357 29.358 256.725 29.358ZM256.725 28.17C257.077 28.17 257.405 28.086 257.709 27.918C258.021 27.75 258.273 27.498 258.465 27.162C258.657 26.826 258.753 26.418 258.753 25.938C258.753 25.458 258.661 25.054 258.477 24.726C258.293 24.39 258.049 24.138 257.745 23.97C257.441 23.802 257.113 23.718 256.761 23.718C256.409 23.718 256.081 23.802 255.777 23.97C255.481 24.138 255.245 24.39 255.069 24.726C254.893 25.054 254.805 25.458 254.805 25.938C254.805 26.65 254.985 27.202 255.345 27.594C255.713 27.978 256.173 28.17 256.725 28.17ZM262.877 23.598C263.077 23.262 263.341 23.002 263.669 22.818C264.005 22.626 264.401 22.53 264.857 22.53V23.946H264.509C263.973 23.946 263.565 24.082 263.285 24.354C263.013 24.626 262.877 25.098 262.877 25.77V29.25H261.509V22.638H262.877V23.598ZM272.175 25.782C272.175 26.03 272.159 26.254 272.127 26.454H267.075C267.115 26.982 267.311 27.406 267.663 27.726C268.015 28.046 268.447 28.206 268.959 28.206C269.695 28.206 270.215 27.898 270.519 27.282H271.995C271.795 27.89 271.431 28.39 270.903 28.782C270.383 29.166 269.735 29.358 268.959 29.358C268.327 29.358 267.759 29.218 267.255 28.938C266.759 28.65 266.367 28.25 266.079 27.738C265.799 27.218 265.659 26.618 265.659 25.938C265.659 25.258 265.795 24.662 266.067 24.15C266.347 23.63 266.735 23.23 267.231 22.95C267.735 22.67 268.311 22.53 268.959 22.53C269.583 22.53 270.139 22.666 270.627 22.938C271.115 23.21 271.495 23.594 271.767 24.09C272.039 24.578 272.175 25.142 272.175 25.782ZM270.747 25.35C270.739 24.846 270.559 24.442 270.207 24.138C269.855 23.834 269.419 23.682 268.899 23.682C268.427 23.682 268.023 23.834 267.687 24.138C267.351 24.434 267.151 24.838 267.087 25.35H270.747Z" fill="white"/>
<defs>
<linearGradient id="paint0_linear_1_16625" x1="1696" y1="5" x2="1696" y2="3055" gradientUnits="userSpaceOnUse">
<stop stop-color="#17C9FB"/>
<stop offset="1" stop-color="#1A74E8"/>
</linearGradient>
<clipPath id="clip0_1_16625">
<rect width="27.5901" height="30.5" fill="white" transform="translate(12.4102 5)"/>
</clipPath>
<clipPath id="clip1_1_16625">
<rect width="30.5" height="30.5" fill="white" transform="translate(171 5)"/>
</clipPath>
</defs>
</svg>
