<svg width="1440" height="454" viewBox="0 0 1440 454" fill="none" xmlns="http://www.w3.org/2000/svg">
<rect y="0.946289" width="1440" height="452.626" fill="#FFC61E"/>
<g style="mix-blend-mode:overlay">
<path d="M1330.82 400.472C1329.21 399.479 1326.96 396.149 1327.17 395.019L1357.17 346.257C1358.25 344.48 1358.59 342.345 1358.1 340.32C1357.62 338.295 1356.35 336.545 1354.57 335.455L1308.81 307.293L1332.82 268.243L1374.77 294.076C1385.9 300.942 1397.92 291.731 1401.89 285.276C1402.98 283.499 1403.32 281.364 1402.83 279.339C1402.34 277.314 1401.07 275.565 1399.3 274.474C1397.52 273.387 1395.38 273.049 1393.35 273.534C1391.32 274.02 1389.56 275.289 1388.46 277.065C1387.47 278.679 1384.14 280.933 1383.01 280.717L1334.35 250.695C1332.58 249.609 1330.44 249.272 1328.42 249.758C1326.39 250.244 1324.64 251.513 1323.55 253.287L1295.39 299.048L1256.34 275.041L1282.17 233.09C1289.04 221.958 1279.83 209.938 1273.37 205.969C1271.59 204.876 1269.45 204.534 1267.42 205.02C1265.39 205.506 1263.63 206.779 1262.54 208.56C1261.44 210.34 1261.1 212.482 1261.59 214.514C1262.07 216.546 1263.35 218.302 1265.13 219.395C1266.74 220.387 1268.99 223.717 1268.78 224.848L1238.79 273.509C1237.7 275.286 1237.37 277.421 1237.85 279.446C1238.34 281.471 1239.61 283.221 1241.38 284.311L1287.14 312.474L1263.14 351.523L1221.19 325.691C1209.95 318.817 1197.93 328.028 1193.96 334.483C1193.42 335.361 1193.06 336.338 1192.9 337.358C1192.73 338.377 1192.77 339.419 1193.01 340.423C1193.25 341.427 1193.69 342.373 1194.3 343.207C1194.91 344.042 1195.68 344.748 1196.56 345.285C1198.34 346.363 1200.48 346.696 1202.51 346.212C1204.53 345.727 1206.29 344.463 1207.39 342.694C1208.38 341.08 1211.71 338.826 1212.84 339.042L1261.61 369.038C1263.38 370.124 1265.52 370.461 1267.54 369.975C1269.57 369.489 1271.32 368.219 1272.41 366.445L1300.57 320.719L1339.62 344.725L1313.79 386.676C1306.92 397.808 1316.13 409.828 1322.59 413.797C1323.47 414.338 1324.45 414.701 1325.47 414.864C1326.49 415.026 1327.53 414.986 1328.54 414.746C1329.55 414.505 1330.49 414.069 1331.33 413.462C1332.17 412.854 1332.88 412.088 1333.42 411.207C1333.96 410.325 1334.32 409.345 1334.49 408.324C1334.65 407.302 1334.61 406.258 1334.37 405.252C1334.13 404.246 1333.69 403.297 1333.09 402.46C1332.48 401.622 1331.71 400.912 1330.83 400.371L1330.82 400.472Z" fill="#0051BA"/>
</g>
<g style="mix-blend-mode:overlay">
<path d="M204.271 244.689C202.293 243.724 199.365 240.234 199.524 238.972L230.617 182.879C231.741 180.835 231.956 178.456 231.215 176.264C230.473 174.072 228.835 172.245 226.661 171.185L170.567 143.788L195.449 98.8683L246.875 124.001C260.523 130.683 273.854 119.583 277.968 112.158C279.093 110.115 279.308 107.736 278.566 105.544C277.824 103.352 276.187 101.525 274.012 100.465C271.829 99.4076 269.288 99.2048 266.946 99.9004C264.603 100.596 262.65 102.134 261.512 104.177C260.483 106.033 256.765 108.78 255.42 108.632L195.765 79.4156C193.588 78.3603 191.053 78.1585 188.717 78.8544C186.381 79.5503 184.435 81.0872 183.305 83.128L154.11 135.769L106.245 112.418L133.026 64.1579C140.146 51.3503 128.318 38.8397 120.407 34.9789C118.224 33.9155 115.681 33.7093 113.337 34.4055C110.993 35.1017 109.039 36.6433 107.906 38.6912C106.773 40.7391 106.553 43.1256 107.295 45.3256C108.037 47.5255 109.68 49.3589 111.862 50.4222C113.84 51.3874 116.767 54.877 116.609 56.1392L85.516 112.121C84.3914 114.165 84.1763 116.544 84.9179 118.736C85.6595 120.928 87.2972 122.755 89.4718 123.815L145.566 151.212L120.683 196.132L69.2574 170.999C55.4911 164.317 42.1598 175.417 38.0458 182.842C37.4836 183.852 37.14 184.958 37.0347 186.094C36.9294 187.229 37.0644 188.374 37.4321 189.461C37.7997 190.547 38.3927 191.555 39.1769 192.426C39.9611 193.297 40.9211 194.014 42.0016 194.535C44.187 195.582 46.7238 195.78 49.0632 195.085C51.4025 194.39 53.3564 192.859 54.5021 190.823C55.5306 188.967 59.2491 186.22 60.5941 186.368L120.367 215.547C122.545 216.603 125.079 216.804 127.415 216.108C129.751 215.413 131.698 213.876 132.828 211.835L162.022 159.231L209.888 182.582L183.107 230.842C175.986 243.65 187.814 256.16 195.726 260.021C196.806 260.548 197.987 260.869 199.2 260.968C200.413 261.066 201.635 260.939 202.795 260.595C203.956 260.25 205.033 259.694 205.965 258.959C206.897 258.223 207.665 257.323 208.226 256.309C208.787 255.295 209.13 254.187 209.235 253.049C209.34 251.91 209.205 250.764 208.837 249.674C208.47 248.585 207.878 247.574 207.094 246.7C206.311 245.825 205.351 245.104 204.271 244.578V244.689Z" fill="#0051BA"/>
</g>
</svg>
