<svg width="97" height="41" viewBox="0 0 97 41" fill="none" xmlns="http://www.w3.org/2000/svg">
<path d="M22.8942 1C19.8594 11.8352 17.2259 22.8484 9.20137 33.0598C7.61917 35.0732 5.80274 37.0075 3.49423 38.8211C3.13578 39.1027 2.35464 39.7906 1.67141 39.9846C1.25167 40.1038 1.41455 39.4992 1.41101 39.2503C1.38891 37.6975 1.35441 36.3155 2.14881 34.7769C4.48744 30.2473 8.46369 25.8625 12.6083 21.718C13.7334 20.5929 16.1324 17.8861 18.7929 17.0638C20.2284 16.6201 20.722 22.8258 20.7893 23.2543C21.1604 25.6184 21.6191 27.9738 22.5036 30.3034C22.7439 30.9363 23.1838 33.1538 24.6302 33.602C28.3867 34.766 37.4395 26.9318 38.7136 25.9655C41.5956 23.7796 44.3683 21.5566 47.1116 19.3231C47.9766 18.6188 48.8441 17.7173 49.9326 17.0751C50.2422 16.8924 50.4571 18.3024 50.5836 18.4872C51.8964 20.4045 54.9513 20.0466 57.6145 18.9616C59.8946 18.0327 62.0128 16.5008 63.0395 15.0756C63.1165 14.9687 60.4298 17.3135 60.1317 17.6286C56.2726 21.7079 52.319 26.1468 51.5384 30.7327C51.2033 32.7017 51.1657 36.7008 55.3143 37.8721C57.5947 38.516 59.4441 36.5112 60.3921 35.771" stroke="black" stroke-linecap="round"/>
<path d="M43.2061 31.247C57.4767 28.6421 71.4972 25.6361 85.5648 22.752C89.1242 22.0222 92.5889 21.1527 96.2413 20.5604C96.9148 20.4512 95.0061 20.9159 94.3751 21.0801" stroke="black" stroke-linecap="round"/>
</svg>
