<svg width="313" height="350" viewBox="0 0 313 350" fill="none" xmlns="http://www.w3.org/2000/svg">
<g style="mix-blend-mode:difference" opacity="0.5">
<path d="M150.515 0.978103L132.348 31.0928L162.463 49.2589L180.629 19.1442L150.515 0.978103ZM90.123 33.0031C97.9265 133.548 214.565 121.761 246.914 45.4382L208.752 29.2635C198.633 57.3868 142.224 105.505 90.123 33.0031ZM73.8672 105.343C41.68 113.309 7.42034 147.406 7.42034 147.406L41.5179 181.666C53.6286 161.59 83.8244 145.577 101.909 149.641C138.079 157.769 97.7643 201.905 61.5943 193.777L75.5343 250.104C117.841 214.016 157.994 238.237 147.874 266.36C117.516 350.73 13.1513 274.083 1.20279 225.802C-7.08728 330.329 85.3292 358.696 133.61 346.747C181.891 334.799 206.112 294.646 162.058 220.152L186.198 214.178C179.98 292.573 286.418 343.089 310.802 234.579C318.93 198.408 293.041 93.8001 212.573 113.714C148.199 129.646 186.198 214.178 123.896 203.977C166.284 133.71 122.148 93.3946 73.8672 105.343ZM254.717 145.983C314.947 182.315 226.189 306.756 202.292 210.195C194.326 178.008 216.556 129.808 254.717 145.983Z" fill="#0051BA"/>
</g>
</svg>