<svg width="355" height="355" viewBox="0 0 355 355" fill="none" xmlns="http://www.w3.org/2000/svg">
<g style="mix-blend-mode:difference" opacity="0.5">
<path d="M245.277 329.208C242.377 327.7 238.084 322.248 238.316 320.275L283.909 232.628C285.558 229.434 285.874 225.718 284.786 222.292C283.699 218.867 281.297 216.013 278.109 214.355L195.855 171.547L232.341 101.359L307.75 140.629C327.762 151.07 347.31 133.726 353.343 122.125C354.992 118.932 355.307 115.215 354.22 111.79C353.133 108.365 350.731 105.51 347.542 103.853C344.341 102.201 340.615 101.885 337.181 102.971C333.746 104.058 330.881 106.461 329.212 109.654C327.704 112.554 322.252 116.846 320.279 116.614L232.805 70.9633C229.612 69.3143 225.896 68.999 222.47 70.0864C219.045 71.1738 216.191 73.5752 214.533 76.764L171.725 159.017L101.537 122.531L140.807 47.1226C151.248 27.1104 133.904 7.56217 122.303 1.52949C119.103 -0.132014 115.374 -0.454298 111.937 0.633535C108.499 1.72137 105.634 4.13021 103.973 7.33014C102.311 10.5301 101.989 14.259 103.077 17.6965C104.165 21.1341 106.574 23.9987 109.774 25.6602C112.674 27.1684 116.966 32.621 116.734 34.5932L71.1413 122.067C69.4923 125.26 69.177 128.977 70.2644 132.402C71.3518 135.828 73.7532 138.682 76.9419 140.339L159.195 183.148L122.709 253.336L47.3006 214.065C27.1143 203.624 7.56613 220.968 1.53345 232.57C0.709164 234.149 0.205312 235.876 0.0508734 237.651C-0.103565 239.426 0.0944576 241.214 0.633551 242.912C1.17264 244.61 2.04217 246.185 3.19211 247.546C4.34204 248.907 5.7497 250.027 7.3341 250.842C10.5387 252.478 14.2585 252.786 17.6888 251.701C21.1191 250.615 23.9842 248.223 25.6642 245.041C27.1723 242.141 32.6249 237.848 34.5972 238.08L122.245 283.673C125.438 285.322 129.155 285.638 132.58 284.55C136.006 283.463 138.86 281.061 140.517 277.873L183.326 195.677L253.514 232.163L214.243 307.572C203.802 327.584 221.146 347.132 232.747 353.165C234.332 353.988 236.063 354.49 237.842 354.644C239.62 354.798 241.412 354.6 243.114 354.061C244.816 353.522 246.395 352.654 247.762 351.505C249.128 350.356 250.255 348.949 251.078 347.364C251.9 345.78 252.403 344.049 252.557 342.27C252.71 340.492 252.512 338.7 251.973 336.998C251.435 335.296 250.566 333.717 249.417 332.35C248.268 330.984 246.861 329.857 245.277 329.034V329.208Z" fill="#FFC61E"/>
</g>
</svg>